<?xml version="1.0" encoding="UTF-8" standalone="no"?>
<!-- Created with Inkscape (http://www.inkscape.org/) -->

<svg
   width="145mm"
   height="145mm"
   viewBox="0 0 145 145"
   version="1.1"
   id="svg5"
   xml:space="preserve"
   inkscape:version="1.2 (dc2aedaf03, 2022-05-15)"
   sodipodi:docname="comment_icon.svg"
   inkscape:export-filename="comment_icon.png"
   inkscape:export-xdpi="96"
   inkscape:export-ydpi="96"
   xmlns:inkscape="http://www.inkscape.org/namespaces/inkscape"
   xmlns:sodipodi="http://sodipodi.sourceforge.net/DTD/sodipodi-0.dtd"
   xmlns="http://www.w3.org/2000/svg"
   xmlns:svg="http://www.w3.org/2000/svg"><sodipodi:namedview
     id="namedview7"
     pagecolor="#505050"
     bordercolor="#eeeeee"
     borderopacity="1"
     inkscape:showpageshadow="0"
     inkscape:pageopacity="0"
     inkscape:pagecheckerboard="0"
     inkscape:deskcolor="#505050"
     inkscape:document-units="mm"
     showgrid="false"
     showguides="true"
     inkscape:zoom="0.70710678"
     inkscape:cx="60.811183"
     inkscape:cy="335.16861"
     inkscape:window-width="1920"
     inkscape:window-height="1017"
     inkscape:window-x="-8"
     inkscape:window-y="-8"
     inkscape:window-maximized="1"
     inkscape:current-layer="layer2"><sodipodi:guide
       position="72.499967,46.566732"
       orientation="1,0"
       id="guide991"
       inkscape:locked="false" /></sodipodi:namedview><defs
     id="defs2" /><g
     inkscape:label="Layer 1"
     inkscape:groupmode="layer"
     id="layer1"
     style="display:inline;opacity:0.124498" /><g
     inkscape:groupmode="layer"
     id="layer2"
     inkscape:label="Layer 2"
     style="display:inline"><path
       style="fill:#000000;stroke-width:0.867804;fill-opacity:1"
       d="M 64.567865,124.51554 C 52.558027,122.65165 42.949473,117.50183 34.338577,108.31377 24.632591,97.957217 20.130152,86.64169 20.075749,72.468432 20.018642,57.590614 24.749774,46.262225 35.51725,35.494748 46.406423,24.605573 57.657423,19.965059 72.93954,20.059792 c 22.950082,0.142268 42.96512,15.067829 49.91445,37.222075 3.94668,12.581879 2.13462,29.274986 -4.43571,40.862883 l -2.50337,4.41512 3.54779,10.60565 c 1.95129,5.83311 3.35547,10.79797 3.12042,11.03303 -0.23507,0.23506 -5.1813,-1.33041 -10.99166,-3.47883 l -10.56426,-3.90621 -2.769741,1.70571 c -7.62165,4.69373 -23.673605,7.55076 -33.689594,5.99632 z m 17.596957,-4.70294 c 3.172829,-0.6725 8.693986,-2.66913 12.269242,-4.43695 l 6.500456,-3.21423 7.16456,2.73588 c 3.94049,1.50474 7.34151,2.55892 7.5578,2.34263 0.21629,-0.2163 -0.62105,-3.52657 -1.86076,-7.35616 -1.23972,-3.82959 -2.25403,-7.36539 -2.25403,-7.85732 0,-0.49193 1.13918,-2.755212 2.5315,-5.029527 8.27679,-13.519845 8.91268,-31.086579 1.66637,-46.033735 C 111.81924,42.875799 101.87745,32.923835 93.965354,29.166279 83.419076,24.157718 73.431541,22.874759 62.696151,25.149565 46.10265,28.665689 32.109707,41.237052 26.447334,57.715769 23.637888,65.89186 23.601784,78.484005 26.363984,86.787194 34.348325,110.78819 58.184279,124.89536 82.164825,119.8126 Z M 44.14566,78.997206 c -2.554909,-1.789532 -3.2045,-5.149929 -1.596584,-8.259296 3.64244,-7.043702 14.222927,-2.356989 11.608703,5.142171 -1.501213,4.306398 -6.217735,5.774818 -10.012119,3.117125 z m 24.298501,0 c -2.554909,-1.789532 -3.204504,-5.149929 -1.596585,-8.259296 3.436164,-6.644816 13.382365,-2.827756 11.964087,4.591463 -0.845848,4.424801 -6.454089,6.408896 -10.367502,3.667833 z m 24.608993,0.317226 c -2.574947,-1.497968 -3.363876,-4.788654 -1.955934,-8.158327 2.211085,-5.291876 9.18685,-5.259533 11.40653,0.05285 1.10632,2.647817 1.10324,3.322717 -0.0251,5.504679 -1.83658,3.551565 -5.875436,4.665999 -9.425499,2.600764 z"
       id="path311"
       sodipodi:nodetypes="ssssssscssscsssscsssssssssssssssssssscssscc" /><path
       style="display:inline;fill:#9300ff;fill-opacity:1;stroke-width:0.867804"
       d="m -92.292305,124.51554 c -12.009845,-1.86389 -21.618395,-7.01371 -30.229285,-16.20177 -9.70599,-10.356553 -14.20843,-21.67208 -14.26283,-35.845338 -0.0571,-14.877818 4.67402,-26.206207 15.4415,-36.973684 10.88917,-10.889175 22.140165,-15.529689 37.422285,-15.434956 22.950082,0.142268 42.96512,15.067829 49.91445,37.222075 3.94668,12.581879 2.13462,29.274986 -4.43571,40.862883 l -2.50337,4.41512 3.54779,10.60565 c 1.95129,5.83311 3.35547,10.79797 3.12042,11.03303 -0.23507,0.23506 -5.1813,-1.33041 -10.99166,-3.47883 l -10.56426,-3.90621 -2.769741,1.70571 c -7.621649,4.69373 -23.673609,7.55076 -33.689589,5.99632 z m 17.59695,-4.70294 c 3.17283,-0.6725 8.693988,-2.66913 12.269244,-4.43695 l 6.500456,-3.21423 7.16456,2.73588 c 3.94049,1.50474 7.34151,2.55892 7.5578,2.34263 0.21629,-0.2163 -0.62105,-3.52657 -1.86076,-7.35616 -1.23972,-3.82959 -2.25403,-7.36539 -2.25403,-7.85732 0,-0.49193 1.13918,-2.755212 2.5315,-5.029527 8.27679,-13.519845 8.91268,-31.086579 1.66637,-46.033735 -3.92072,-8.087389 -13.86251,-18.039353 -21.774606,-21.796909 -10.546274,-5.008561 -20.533814,-6.29152 -31.269204,-4.016714 -16.593495,3.516124 -30.586435,16.087487 -36.248815,32.566204 -2.80944,8.176091 -2.84555,20.768236 -0.0833,29.071425 7.98435,24.000996 31.820295,38.108166 55.800835,33.025406 z M -112.71451,78.997206 c -2.55491,-1.789532 -3.2045,-5.149929 -1.59658,-8.259296 3.64244,-7.043702 14.22291,-2.356989 11.60869,5.142171 -1.50121,4.306398 -6.21774,5.774818 -10.01211,3.117125 z m 24.298495,0 c -2.55491,-1.789532 -3.2045,-5.149929 -1.59658,-8.259296 3.43616,-6.644816 13.38236,-2.827756 11.96408,4.591463 -0.84584,4.424801 -6.45409,6.408896 -10.3675,3.667833 z m 24.608994,0.317226 c -2.574944,-1.497968 -3.363874,-4.788654 -1.955934,-8.158327 2.211085,-5.291876 9.18685,-5.259533 11.40653,0.05285 1.10632,2.647817 1.10324,3.322717 -0.0251,5.504679 -1.83658,3.551565 -5.875436,4.665999 -9.425499,2.600764 z"
       id="path311-5"
       sodipodi:nodetypes="ssssssscssscsssscsssssssssssssssssssscssscc" /><path
       style="display:inline;fill:#eeeeee;fill-opacity:0.933333;stroke-width:0.867804"
       d="m -235.30791,124.51554 c -12.00984,-1.86389 -21.61839,-7.01371 -30.22929,-16.20177 -9.70598,-10.356551 -14.20842,-21.672082 -14.26282,-35.84534 -0.0571,-14.877818 4.67402,-26.206207 15.44149,-36.973684 10.88918,-10.889175 22.14018,-15.529689 37.42229,-15.434956 22.95009,0.142268 42.96512,15.067829 49.91445,37.222075 3.94668,12.581879 2.13462,29.274986 -4.43571,40.862884 l -2.50337,4.415121 3.54779,10.60565 c 1.95129,5.83311 3.35547,10.79797 3.12042,11.03303 -0.23507,0.23506 -5.1813,-1.33041 -10.99166,-3.47883 l -10.56426,-3.90621 -2.76974,1.70571 c -7.62165,4.69373 -23.6736,7.55076 -33.68959,5.99632 z m 17.59696,-4.70294 c 3.17282,-0.6725 8.69398,-2.66913 12.26924,-4.43695 l 6.50045,-3.21423 7.16456,2.73588 c 3.94049,1.50474 7.34151,2.55892 7.5578,2.34263 0.21629,-0.2163 -0.62105,-3.52657 -1.86076,-7.35616 -1.23972,-3.82959 -2.25403,-7.36539 -2.25403,-7.85732 0,-0.49193 1.13918,-2.755211 2.5315,-5.029531 8.27679,-13.519843 8.91268,-31.086577 1.66637,-46.033733 -3.92072,-8.087389 -13.86251,-18.039353 -21.7746,-21.796909 -10.54628,-5.008561 -20.53382,-6.29152 -31.26921,-4.016714 -16.5935,3.516124 -30.58644,16.087487 -36.24881,32.566204 -2.80945,8.176091 -2.84555,20.768236 -0.0833,29.071425 7.98434,24.000998 31.82029,38.108168 55.80084,33.025408 z m -38.01917,-40.815396 c -2.5549,-1.789532 -3.2045,-5.149929 -1.59658,-8.259296 3.64244,-7.043702 14.22293,-2.356989 11.6087,5.142171 -1.50121,4.306398 -6.21773,5.774818 -10.01212,3.117125 z m 24.2985,0 c -2.5549,-1.789532 -3.2045,-5.149929 -1.59658,-8.259296 3.43616,-6.644816 13.38236,-2.827756 11.96409,4.591463 -0.84585,4.424801 -6.45409,6.408896 -10.36751,3.667833 z m 24.609,0.317226 c -2.57495,-1.497968 -3.36388,-4.788654 -1.95594,-8.158327 2.21109,-5.291876 9.18685,-5.259533 11.40653,0.05285 1.10632,2.647817 1.10324,3.322717 -0.0251,5.504679 -1.83658,3.551565 -5.87543,4.665999 -9.4255,2.600764 z"
       id="path311-2"
       sodipodi:nodetypes="ssssssscssscsssscsssssssssssssssssssscssscc" /></g></svg>
