<?xml version="1.0" encoding="UTF-8" standalone="no"?>
<!-- Created with Inkscape (http://www.inkscape.org/) -->

<svg
   width="145mm"
   height="145mm"
   viewBox="0 0 145 145"
   version="1.1"
   id="svg5"
   xml:space="preserve"
   inkscape:version="1.2 (dc2aedaf03, 2022-05-15)"
   sodipodi:docname="default_profile_picture.svg"
   inkscape:export-filename="default_profile_picture.png"
   inkscape:export-xdpi="96"
   inkscape:export-ydpi="96"
   xmlns:inkscape="http://www.inkscape.org/namespaces/inkscape"
   xmlns:sodipodi="http://sodipodi.sourceforge.net/DTD/sodipodi-0.dtd"
   xmlns="http://www.w3.org/2000/svg"
   xmlns:svg="http://www.w3.org/2000/svg"><sodipodi:namedview
     id="namedview7"
     pagecolor="#505050"
     bordercolor="#eeeeee"
     borderopacity="1"
     inkscape:showpageshadow="0"
     inkscape:pageopacity="0"
     inkscape:pagecheckerboard="0"
     inkscape:deskcolor="#505050"
     inkscape:document-units="mm"
     showgrid="false"
     showguides="true"
     inkscape:zoom="0.70710678"
     inkscape:cx="48.083261"
     inkscape:cy="386.0803"
     inkscape:window-width="1920"
     inkscape:window-height="1017"
     inkscape:window-x="-8"
     inkscape:window-y="-8"
     inkscape:window-maximized="1"
     inkscape:current-layer="layer1"><sodipodi:guide
       position="72.499967,46.566732"
       orientation="1,0"
       id="guide991"
       inkscape:locked="false" /></sodipodi:namedview><defs
     id="defs2" /><g
     inkscape:label="Layer 1"
     inkscape:groupmode="layer"
     id="layer1"
     style="display:inline;opacity:0.124498" /><g
     inkscape:groupmode="layer"
     id="layer2"
     inkscape:label="Layer 2"><circle
       style="display:inline;fill:#9300ff;fill-opacity:1;stroke-width:0.125942"
       id="path915-3-5"
       cx="72.5"
       cy="82.02916"
       r="62.970837" /><path
       id="path915-3-3"
       style="display:inline;fill:#9e9e9e;stroke-width:0.125942;fill-opacity:1"
       d="M 72.499967 98.433268 A 62.970837 62.970837 0 0 0 23.6337 121.7166 A 62.970837 62.970837 0 0 0 72.499967 144.99993 A 62.970837 62.970837 0 0 0 121.37502 121.70627 A 62.970837 62.970837 0 0 0 72.499967 98.433268 z " /><path
       id="rect5292"
       style="fill:#dddddd;stroke-width:0.133033"
       d="m 60.59837,89.456039 h 23.8125 V 100.6311 c 0,0 -2.585599,6.39872 -11.90651,6.39862 -9.320911,-1e-4 -11.90599,-6.39862 -11.90599,-6.39862 z"
       sodipodi:nodetypes="ccczcc" /><path
       id="rect1286"
       style="opacity:1;fill:#c7c5c5;fill-opacity:1;stroke-width:0.133033"
       d="m 60.598368,85.267144 v 11.729514 c 3.641736,1.603001 7.667138,2.494925 11.901599,2.494925 4.238272,0 8.267199,-0.893474 11.910901,-2.499575 V 85.267144 Z" /><path
       id="circle1097"
       style="opacity:1;fill:#dddddd;stroke-width:0.285674;fill-opacity:1"
       d="M 72.499969,96.845766 C 56.170455,96.845765 42.932768,83.608078 42.932784,67.300204 l 1.5e-5,-13.358285 C 42.932817,37.612405 56.170485,24.374718 72.5,24.374717 c 16.329512,1e-6 29.5672,13.237688 29.5672,29.567202 l -0.0352,13.336645 c 0.0351,16.329514 -13.202557,29.567201 -29.532071,29.567202 z"
       sodipodi:nodetypes="scscccss" /><path
       id="circle1097-2-3"
       style="display:inline;opacity:1;fill:#9e9e9e;fill-opacity:1;stroke-width:0.331273"
       d="m 91.491605,6.152057 c -5.797285,1.55338 -13.929137,0.4842 -18.808671,0.4842 v 5.2e-4 c -0.583732,0 -1.163993,0.0155 -1.740462,0.0455 -1.441174,0.0751 -2.858735,0.24284 -4.24677,0.49764 -0.83282,0.15288 -1.654979,0.33709 -2.465482,0.55139 -0.270168,0.0714 -0.539158,0.1462 -0.806669,0.22427 -1.337554,0.39039 -2.641212,0.8632 -3.905705,1.41284 -0.505797,0.21985 -1.005232,0.45202 -1.4981,0.69608 -2.217906,1.09827 -4.30158,2.43791 -6.218225,3.9858 -0.425921,0.34398 -0.843541,0.69829 -1.252637,1.06247 -0.409096,0.36418 -0.809397,0.73824 -1.20096,1.1219 -0.195781,0.19182 -0.389578,0.38583 -0.580843,0.58239 -0.191352,0.19664 -0.380147,0.39557 -0.56689,0.59686 -0.186661,0.2012 -0.370971,0.40455 -0.552938,0.6103 -8.5e-5,10e-5 8.4e-5,4.2e-4 0,5.2e-4 -0.181879,0.20565 -0.361367,0.41311 -0.538469,0.62321 -8.4e-5,10e-5 8.4e-5,4.2e-4 0,5.2e-4 -0.177097,0.21011 -0.352284,0.42218 -0.524515,0.63666 -0.172401,0.21467 -0.342093,0.43164 -0.50953,0.6506 -0.167357,0.21886 -0.332234,0.43945 -0.494544,0.66249 -8.1e-5,1.2e-4 8.2e-5,4.1e-4 0,5.2e-4 -0.162223,0.22293 -0.321947,0.44787 -0.47904,0.67489 -8e-5,1.2e-4 8e-5,4.1e-4 0,5.2e-4 -0.157089,0.22702 -0.311667,0.45576 -0.463538,0.68678 -0.15203,0.23126 -0.301323,0.46453 -0.448034,0.6997 -0.146636,0.23505 -0.290781,0.47168 -0.432015,0.71055 -7.5e-5,1.3e-4 7.5e-5,3.9e-4 0,5.2e-4 -0.141156,0.23875 -0.279808,0.47944 -0.415479,0.72192 -7.3e-5,1.3e-4 7.3e-5,3.8e-4 0,5.1e-4 -0.135667,0.24248 -0.268847,0.48666 -0.398942,0.73278 -7.1e-5,1.3e-4 7.1e-5,3.8e-4 0,5.1e-4 -0.130091,0.24611 -0.257459,0.49397 -0.381889,0.74363 -6.8e-5,1.3e-4 6.9e-5,3.8e-4 0,5.1e-4 -0.124426,0.24966 -0.246159,0.50085 -0.364835,0.75396 -6.6e-5,1.4e-4 6.6e-5,3.8e-4 0,5.2e-4 -0.118673,0.25311 -0.234947,0.50782 -0.347783,0.76429 -6.3e-5,1.5e-4 6.3e-5,3.8e-4 0,5.2e-4 -0.112831,0.25648 -0.22279,0.51436 -0.329695,0.77411 -6.1e-5,1.5e-4 6e-5,3.7e-4 0,5.2e-4 -0.106902,0.25975 -0.210722,0.521 -0.311609,0.78393 -5.8e-5,1.5e-4 5.7e-5,3.7e-4 0,5.2e-4 -0.100884,0.26293 -0.199259,0.52773 -0.294039,0.79375 -5.4e-5,1.5e-4 5.4e-5,3.6e-4 0,5.2e-4 -0.09478,0.26602 -0.186334,0.53351 -0.274919,0.80253 -5.1e-5,1.6e-4 5.1e-5,3.6e-4 0,5.2e-4 -0.08858,0.26902 -0.17453,0.53938 -0.256832,0.81132 -4.7e-5,1.5e-4 4.8e-5,3.6e-4 0,5.1e-4 -0.0823,0.27194 -0.161265,0.54536 -0.237194,0.82011 -4.5e-5,1.6e-4 4.4e-5,3.6e-4 0,5.2e-4 -0.07593,0.27475 -0.149122,0.55089 -0.218592,0.82837 -4e-5,1.6e-4 4.1e-5,3.5e-4 0,5.2e-4 -0.06947,0.27748 -0.135517,0.556 -0.198437,0.83612 -3.7e-5,1.6e-4 3.7e-5,3.5e-4 0,5.2e-4 -0.06292,0.28012 -0.122517,0.56173 -0.178801,0.84439 -3.3e-5,1.7e-4 3.3e-5,3.5e-4 0,5.2e-4 -0.05628,0.28266 -0.109606,0.5665 -0.159163,0.85162 -2.9e-5,1.7e-4 2.9e-5,3.5e-4 0,5.2e-4 -0.04955,0.28512 -0.09575,0.57138 -0.138493,0.85886 -0.0428,0.28782 -0.08194,0.57652 -0.117822,0.86662 -0.03586,0.28992 -0.06829,0.5807 -0.09715,0.87281 -1.7e-5,1.7e-4 1.7e-5,3.5e-4 0,5.2e-4 -0.02885,0.29194 -0.05419,0.58498 -0.07596,0.87901 -1.3e-5,1.8e-4 1.2e-5,3.5e-4 0,5.2e-4 -0.02177,0.29404 -0.04017,0.58918 -0.05478,0.88522 -9e-6,1.7e-4 8e-6,3.4e-4 0,5.2e-4 -0.0146,0.29603 -0.02573,0.59295 -0.03307,0.8909 -4e-6,1.7e-4 4e-6,3.4e-4 0,5.1e-4 -0.0073,0.29795 -0.01085,0.59682 -0.01085,0.89659 v 5.2e-4 15.7024 5.1e-4 l 4.25452,-0.002 v -2.36007 c 1.8e-5,-16.32948 13.237705,-29.56718 29.567188,-29.56718 16.329485,0 29.038538,13.2377 29.038538,29.56718 l -0.006,2.33785 4.74958,-0.002 0.0403,-15.6776 c 0,-12.21545 -6.13311,-22.9574 -15.406298,-29.15584 0.698599,-2.43468 0.774301,-4.66245 0.392741,-6.08645 z"
       sodipodi:nodetypes="ccccsccsssssssscsccsscscssscscscscscscscscscscscscscscscscssscscscscsccccssccccccc" /><path
       id="path8900"
       style="opacity:1;fill:#9e9e9e;stroke-width:0.162233"
       d="m 63.3295,14.137097 c -8.117269,-0.0031 -12.462287,1.17382 -12.462288,10.64121 0,4.08661 -11.338135,11.00985 -9.24078,14.32936 4.381195,6.93416 12.690627,11.61428 22.219833,11.61428 11.650136,0 21.475567,-6.99558 24.530285,-16.553 l 14.46475,10.77092 -4.299479,-18.1901 -9.327079,-3.16467 c -0.701925,-8.57287 -4.23748,-9.31519 -16.531808,-9.31519 -3.522749,0 -6.647677,-0.13179 -9.353434,-0.13281 z" /><path
       id="circle1097-3"
       style="fill:#dddddd;stroke-width:0.0750937;fill-opacity:1"
       d="m 100.80625,71.070025 c -3.908863,0 -7.077633,-3.821204 -7.077623,-8.528652 v -3.856016 c 1e-5,-4.713695 3.16876,-8.534899 7.077623,-8.534899 3.90887,0 7.07763,3.821204 7.07763,8.534899 l -0.008,3.849769 c 0.008,4.713695 -3.16035,8.534899 -7.06921,8.534899 z"
       sodipodi:nodetypes="scscccss" /><path
       id="circle1097-3-8"
       style="fill:#dddddd;stroke-width:0.0750937;fill-opacity:1"
       d="m 44.193752,71.070025 c 3.90887,0 7.077635,-3.821204 7.077625,-8.528652 v -3.856016 c -1e-5,-4.713695 -3.168755,-8.534899 -7.077625,-8.534899 -3.90887,0 -7.07763,3.821204 -7.07763,8.534899 l 0.008,3.849769 c -0.008,4.713695 3.16035,8.534899 7.06921,8.534899 z"
       sodipodi:nodetypes="scscccss" /></g></svg>
