<?xml version="1.0" encoding="UTF-8" standalone="no"?>
<!-- Created with Inkscape (http://www.inkscape.org/) -->

<svg
   width="145mm"
   height="145mm"
   viewBox="0 0 145 145"
   version="1.1"
   id="svg5"
   xml:space="preserve"
   inkscape:version="1.2 (dc2aedaf03, 2022-05-15)"
   sodipodi:docname="send_icon.svg"
   inkscape:export-filename="send_icon.png"
   inkscape:export-xdpi="96"
   inkscape:export-ydpi="96"
   xmlns:inkscape="http://www.inkscape.org/namespaces/inkscape"
   xmlns:sodipodi="http://sodipodi.sourceforge.net/DTD/sodipodi-0.dtd"
   xmlns="http://www.w3.org/2000/svg"
   xmlns:svg="http://www.w3.org/2000/svg"><sodipodi:namedview
     id="namedview7"
     pagecolor="#505050"
     bordercolor="#eeeeee"
     borderopacity="1"
     inkscape:showpageshadow="0"
     inkscape:pageopacity="0"
     inkscape:pagecheckerboard="0"
     inkscape:deskcolor="#505050"
     inkscape:document-units="mm"
     showgrid="false"
     showguides="true"
     inkscape:zoom="0.34522343"
     inkscape:cx="-564.85158"
     inkscape:cy="127.45369"
     inkscape:window-width="1920"
     inkscape:window-height="1017"
     inkscape:window-x="-8"
     inkscape:window-y="-8"
     inkscape:window-maximized="1"
     inkscape:current-layer="svg5"><sodipodi:guide
       position="72.499967,46.566732"
       orientation="1,0"
       id="guide991"
       inkscape:locked="false" /></sodipodi:namedview><defs
     id="defs2" /><g
     inkscape:label="Layer 1"
     inkscape:groupmode="layer"
     id="layer1"
     style="display:inline;opacity:0.124498"><path
       style="fill:#9300ff;stroke-width:0.349838;fill-opacity:1;opacity:1;stroke:none"
       d="m 52.296856,127.24306 c -0.778946,-0.55204 -0.787136,-0.64526 -0.787136,-8.9577 0,-8.22045 0.01483,-8.39514 0.694666,-8.17937 1.311602,0.41629 15.922631,7.53318 15.994019,7.79053 0.08989,0.32406 -13.520909,9.49869 -14.437904,9.73216 -0.372081,0.0947 -1.030721,-0.0788 -1.463645,-0.38562 z M 71.670816,111.9191 C 60.728374,106.68973 51.809811,102.25372 51.851788,102.06131 51.893765,101.8689 63.9165,89.663983 78.568977,74.939275 102.77088,50.618071 108.27283,44.98965 105.19649,47.69968 104.6266,48.201708 92.589444,58.11033 78.447244,69.718842 64.305044,81.327355 50.650511,92.539606 48.103841,94.634954 L 43.473529,98.444675 27.463401,90.84398 C 18.65783,86.663598 11.059705,82.869017 10.578677,82.411583 9.435802,81.324763 9.3444659,78.826297 10.408705,77.762055 10.796248,77.374515 35.354873,65.157218 64.983429,50.612505 137.99245,14.772247 133.22904,17.048241 134.25323,17.514894 c 0.46666,0.212622 0.9403,0.752485 1.05254,1.199696 0.14268,0.568504 -1.84113,5.965691 -6.59453,17.941093 -3.73923,9.420392 -12.65538,31.92613 -19.81366,50.012753 -14.00276,35.380394 -13.750219,34.838154 -16.199959,34.783754 -0.722458,-0.0161 -8.323177,-3.46204 -21.026805,-9.53309 z"
       id="path442" /></g><path
     id="path915-3-5-7"
     style="display:inline;fill:#9300ff;fill-opacity:1;stroke-width:0.180582"
     d="m 133.89003,17.330796 c 0.19619,0.009 0.21514,0.12604 0.37517,0.198954 0.46666,0.212622 0.94041,0.752716 1.05265,1.199927 0.14268,0.568503 -1.84155,5.965634 -6.59494,17.941024 -3.73923,9.420382 -12.65499,31.926363 -19.81326,50.012964 -14.002761,35.380355 -13.750321,34.837805 -16.200061,34.783405 -0.72246,-0.0161 -8.32352,-3.46171 -21.02714,-9.53275 -10.94243,-5.22937 -19.860922,-9.66539 -19.818942,-9.8578 0.042,-0.19241 12.064772,-12.397675 26.717232,-27.122366 C 102.78263,50.632972 108.28492,45.004961 105.20858,47.714988 104.63869,48.217015 92.601479,58.125298 78.459299,69.733794 64.317109,81.342305 50.662597,92.554765 48.115927,94.650105 l -4.63072,3.80959 -16.00988,-7.60057 c -8.80556,-4.18038 -16.40373,-7.97513 -16.88476,-8.43256 -1.1428699,-1.08682 -1.2342499,-3.58509 -0.17001,-4.64933 0.38754,-0.38754 24.94643,-12.605065 54.574962,-27.149763 C 126.59683,20.387284 132.83062,17.282427 133.89003,17.330796 Z M 51.991147,110.07345 c 0.0655,-1.8e-4 0.14033,0.0206 0.22531,0.0475 1.3116,0.41629 15.922462,7.53339 15.993852,7.79074 0.0899,0.32406 -13.52088,9.49875 -14.43788,9.73222 -0.372082,0.0947 -1.030552,-0.0792 -1.463472,-0.38602 -0.77895,-0.55204 -0.78755,-0.64516 -0.78755,-8.95759 0,-7.19289 0.0115,-8.22561 0.46974,-8.22689 z"
     sodipodi:nodetypes="csssscsssssccsssscccsssscc" /></svg>
